<svg version="1.2" xmlns="http://www.w3.org/2000/svg" viewBox="0 0 32 32" width="32" height="32">
	<title>Info Iconinfo-svg</title>
	<style>
		.s0 { fill: #ffffff } 
		.s1 { fill: #374a59 } 
	</style>
	<g id="Layer">
		<path id="Layer" class="s0" d="m16 32c-8.8 0-16-7.2-16-16 0-8.8 7.2-16 16-16 8.8 0 16 7.2 16 16 0 8.8-7.2 16-16 16z"/>
	</g>
	<path id="Layer" class="s1" d="m19.7 23.1l-0.2 1q-1.1 0.4-1.8 0.7-0.7 0.2-1.6 0.2-1.4 0-2.1-0.7-0.8-0.6-0.8-1.7 0-0.4 0.1-0.8 0-0.4 0.2-0.9l0.9-3.4q0.1-0.4 0.2-0.9 0.1-0.4 0.1-0.8 0-0.6-0.3-0.8-0.2-0.3-1-0.3-0.3 0-0.7 0.1-0.4 0.1-0.7 0.2l0.3-1q0.9-0.4 1.7-0.6 0.9-0.3 1.7-0.3 1.3 0 2.1 0.6 0.7 0.7 0.7 1.8 0 0.2-0.1 0.7 0 0.6-0.2 1l-0.9 3.4q-0.1 0.4-0.2 0.9-0.1 0.5-0.1 0.7 0 0.7 0.3 0.9 0.3 0.3 1 0.3 0.4 0 0.8-0.1 0.4-0.2 0.6-0.2zm0.3-14q0 0.9-0.7 1.5-0.6 0.6-1.6 0.6-0.9 0-1.6-0.6-0.6-0.6-0.6-1.5 0-0.9 0.6-1.5 0.7-0.6 1.6-0.6 1 0 1.6 0.6 0.7 0.6 0.7 1.5z"/>
</svg>